# xmcd
#
# Track frame offsets: 
#        150
#        22650
#        40800
#        115050
#        136800
#        160500
#        178050
#        191100
#        226950
#        243975
#        263400
#        282975
#        296100
#
# Disc length: 4348 seconds
#
# Revision: 1
# Processed by: cddbd v1.5.2PL0 Copyright (c) Steve Scherf et al.
# Submitted via: ExactAudioCopy v0.99pb4
#
DISCID=a910fa0d
DTITLE=Fleetwood Mac - Live
DYEAR=1970
DGENRE=Blues Rock
TTITLE0=Keep A Knocking
TTITLE1=Red Hot Mama
TTITLE2=Green Manalishi
TTITLE3=Madison Blues
TTITLE4=Sandy Mary
TTITLE5=Stranger Blues
TTITLE6=Great Balls Of Fire
TTITLE7=Jenny Jenny
TTITLE8=Got To Move
TTITLE9=Oh Baby
TTITLE10=Teenage Darling
TTITLE11=Loving Kind
TTITLE12=Tutti Frutti
EXTD=
EXTT0=
EXTT1=
EXTT2=
EXTT3=
EXTT4=
EXTT5=
EXTT6=
EXTT7=
EXTT8=
EXTT9=
EXTT10=
EXTT11=
EXTT12=
PLAYORDER=
